<mxfile host="app.diagrams.net" modified="2024-01-24T08:09:33.960Z" agent="Mozilla/5.0 (Windows NT 10.0; Win64; x64) AppleWebKit/537.36 (KHTML, like Gecko) Chrome/120.0.0.0 Safari/537.36" etag="RL0PBjG1NoLHCoNB19RE" version="23.0.0" type="github">
  <diagram id="C5RBs43oDa-KdzZeNtuy" name="Page-1">
    <mxGraphModel dx="1195" dy="622" grid="1" gridSize="10" guides="1" tooltips="1" connect="1" arrows="1" fold="1" page="1" pageScale="1" pageWidth="827" pageHeight="1169" math="0" shadow="0">
      <root>
        <mxCell id="WIyWlLk6GJQsqaUBKTNV-0" />
        <mxCell id="WIyWlLk6GJQsqaUBKTNV-1" parent="WIyWlLk6GJQsqaUBKTNV-0" />
        <mxCell id="WIyWlLk6GJQsqaUBKTNV-3" value="客户端" style="rounded=1;whiteSpace=wrap;html=1;fontSize=12;glass=0;strokeWidth=1;shadow=0;" parent="WIyWlLk6GJQsqaUBKTNV-1" vertex="1">
          <mxGeometry x="354" y="30" width="120" height="40" as="geometry" />
        </mxCell>
        <mxCell id="Y3azeRMZzOdIchfTlwRO-0" value="游戏服" style="rounded=1;whiteSpace=wrap;html=1;fontSize=12;glass=0;strokeWidth=1;shadow=0;" vertex="1" parent="WIyWlLk6GJQsqaUBKTNV-1">
          <mxGeometry x="30" y="250" width="120" height="40" as="geometry" />
        </mxCell>
        <mxCell id="Y3azeRMZzOdIchfTlwRO-1" value="匹配服" style="rounded=1;whiteSpace=wrap;html=1;fontSize=12;glass=0;strokeWidth=1;shadow=0;" vertex="1" parent="WIyWlLk6GJQsqaUBKTNV-1">
          <mxGeometry x="380" y="250" width="120" height="40" as="geometry" />
        </mxCell>
        <mxCell id="Y3azeRMZzOdIchfTlwRO-2" value="副本服" style="rounded=1;whiteSpace=wrap;html=1;fontSize=12;glass=0;strokeWidth=1;shadow=0;" vertex="1" parent="WIyWlLk6GJQsqaUBKTNV-1">
          <mxGeometry x="707" y="250" width="120" height="40" as="geometry" />
        </mxCell>
        <mxCell id="Y3azeRMZzOdIchfTlwRO-3" value="" style="endArrow=classic;html=1;rounded=0;entryX=0.425;entryY=-0.025;entryDx=0;entryDy=0;entryPerimeter=0;" edge="1" parent="WIyWlLk6GJQsqaUBKTNV-1" source="WIyWlLk6GJQsqaUBKTNV-3" target="Y3azeRMZzOdIchfTlwRO-0">
          <mxGeometry width="50" height="50" relative="1" as="geometry">
            <mxPoint x="390" y="410" as="sourcePoint" />
            <mxPoint x="440" y="360" as="targetPoint" />
          </mxGeometry>
        </mxCell>
        <mxCell id="Y3azeRMZzOdIchfTlwRO-5" value="1、CsApplyMatchInstance" style="text;html=1;align=center;verticalAlign=middle;resizable=0;points=[];autosize=1;strokeColor=none;fillColor=none;rotation=330;" vertex="1" parent="WIyWlLk6GJQsqaUBKTNV-1">
          <mxGeometry x="145" y="130" width="160" height="30" as="geometry" />
        </mxCell>
        <mxCell id="Y3azeRMZzOdIchfTlwRO-7" value="" style="endArrow=classic;html=1;rounded=0;exitX=1;exitY=0.5;exitDx=0;exitDy=0;entryX=0;entryY=0.5;entryDx=0;entryDy=0;" edge="1" parent="WIyWlLk6GJQsqaUBKTNV-1" source="Y3azeRMZzOdIchfTlwRO-0" target="Y3azeRMZzOdIchfTlwRO-1">
          <mxGeometry width="50" height="50" relative="1" as="geometry">
            <mxPoint x="390" y="300" as="sourcePoint" />
            <mxPoint x="440" y="250" as="targetPoint" />
          </mxGeometry>
        </mxCell>
        <mxCell id="Y3azeRMZzOdIchfTlwRO-8" value="&lt;div&gt;2、MatchApplyInfoMsg&lt;/div&gt;&lt;div&gt;&lt;br&gt;&lt;/div&gt;" style="text;html=1;align=center;verticalAlign=middle;resizable=0;points=[];autosize=1;strokeColor=none;fillColor=none;" vertex="1" parent="WIyWlLk6GJQsqaUBKTNV-1">
          <mxGeometry x="150" y="240" width="150" height="40" as="geometry" />
        </mxCell>
        <mxCell id="Y3azeRMZzOdIchfTlwRO-11" value="" style="endArrow=classic;html=1;rounded=0;exitX=0.592;exitY=-0.075;exitDx=0;exitDy=0;exitPerimeter=0;entryX=0.308;entryY=1.05;entryDx=0;entryDy=0;entryPerimeter=0;" edge="1" parent="WIyWlLk6GJQsqaUBKTNV-1" source="Y3azeRMZzOdIchfTlwRO-0" target="WIyWlLk6GJQsqaUBKTNV-3">
          <mxGeometry width="50" height="50" relative="1" as="geometry">
            <mxPoint x="390" y="300" as="sourcePoint" />
            <mxPoint x="380" y="120" as="targetPoint" />
          </mxGeometry>
        </mxCell>
        <mxCell id="Y3azeRMZzOdIchfTlwRO-12" value="3、ScApplyMatchInstance&lt;br&gt;5.1、ScMatchInstanceInfo&lt;br&gt;6.5、ScEnterInstance" style="text;html=1;align=left;verticalAlign=middle;resizable=0;points=[];autosize=1;strokeColor=none;fillColor=none;rotation=331;" vertex="1" parent="WIyWlLk6GJQsqaUBKTNV-1">
          <mxGeometry x="194" y="140" width="160" height="60" as="geometry" />
        </mxCell>
        <mxCell id="Y3azeRMZzOdIchfTlwRO-14" value="4、创建房间、加入人员" style="text;html=1;align=center;verticalAlign=middle;resizable=0;points=[];autosize=1;strokeColor=none;fillColor=none;" vertex="1" parent="WIyWlLk6GJQsqaUBKTNV-1">
          <mxGeometry x="365" y="228" width="150" height="30" as="geometry" />
        </mxCell>
        <mxCell id="Y3azeRMZzOdIchfTlwRO-15" value="" style="endArrow=classic;html=1;rounded=0;exitX=0;exitY=0.75;exitDx=0;exitDy=0;" edge="1" parent="WIyWlLk6GJQsqaUBKTNV-1" source="Y3azeRMZzOdIchfTlwRO-1">
          <mxGeometry width="50" height="50" relative="1" as="geometry">
            <mxPoint x="400" y="260" as="sourcePoint" />
            <mxPoint x="150" y="280" as="targetPoint" />
          </mxGeometry>
        </mxCell>
        <mxCell id="Y3azeRMZzOdIchfTlwRO-16" value="5、MatchRoomMemberMsg&lt;br&gt;6.3、MatchCreateInstanceKeyBroadcastMsg" style="text;html=1;align=left;verticalAlign=middle;resizable=0;points=[];autosize=1;strokeColor=none;fillColor=none;" vertex="1" parent="WIyWlLk6GJQsqaUBKTNV-1">
          <mxGeometry x="160" y="275" width="260" height="40" as="geometry" />
        </mxCell>
        <mxCell id="Y3azeRMZzOdIchfTlwRO-17" value="6、tick中读取人员、匹配、创建副本" style="text;html=1;align=center;verticalAlign=middle;resizable=0;points=[];autosize=1;strokeColor=none;fillColor=none;" vertex="1" parent="WIyWlLk6GJQsqaUBKTNV-1">
          <mxGeometry x="365" y="315" width="220" height="30" as="geometry" />
        </mxCell>
        <mxCell id="Y3azeRMZzOdIchfTlwRO-19" value="" style="endArrow=classic;html=1;rounded=0;entryX=0.563;entryY=-0.008;entryDx=0;entryDy=0;entryPerimeter=0;exitX=0.682;exitY=1.054;exitDx=0;exitDy=0;exitPerimeter=0;" edge="1" parent="WIyWlLk6GJQsqaUBKTNV-1" source="WIyWlLk6GJQsqaUBKTNV-3" target="Y3azeRMZzOdIchfTlwRO-2">
          <mxGeometry width="50" height="50" relative="1" as="geometry">
            <mxPoint x="490" y="130" as="sourcePoint" />
            <mxPoint x="540" y="80" as="targetPoint" />
          </mxGeometry>
        </mxCell>
        <mxCell id="Y3azeRMZzOdIchfTlwRO-20" value="5.2、CsIsConnectInstance" style="text;html=1;align=center;verticalAlign=middle;resizable=0;points=[];autosize=1;strokeColor=none;fillColor=none;rotation=30;" vertex="1" parent="WIyWlLk6GJQsqaUBKTNV-1">
          <mxGeometry x="520" y="130" width="170" height="30" as="geometry" />
        </mxCell>
        <mxCell id="Y3azeRMZzOdIchfTlwRO-21" value="" style="endArrow=classic;html=1;rounded=0;exitX=1;exitY=0.5;exitDx=0;exitDy=0;entryX=0;entryY=0.5;entryDx=0;entryDy=0;" edge="1" parent="WIyWlLk6GJQsqaUBKTNV-1" source="Y3azeRMZzOdIchfTlwRO-1" target="Y3azeRMZzOdIchfTlwRO-2">
          <mxGeometry width="50" height="50" relative="1" as="geometry">
            <mxPoint x="600" y="310" as="sourcePoint" />
            <mxPoint x="650" y="260" as="targetPoint" />
          </mxGeometry>
        </mxCell>
        <mxCell id="Y3azeRMZzOdIchfTlwRO-22" value="6.1、MatchCreateInstanceMsg" style="text;html=1;align=center;verticalAlign=middle;resizable=0;points=[];autosize=1;strokeColor=none;fillColor=none;" vertex="1" parent="WIyWlLk6GJQsqaUBKTNV-1">
          <mxGeometry x="510" y="245" width="190" height="30" as="geometry" />
        </mxCell>
        <mxCell id="Y3azeRMZzOdIchfTlwRO-23" value="" style="endArrow=classic;html=1;rounded=0;exitX=1.026;exitY=1.156;exitDx=0;exitDy=0;exitPerimeter=0;entryX=1;entryY=0.75;entryDx=0;entryDy=0;" edge="1" parent="WIyWlLk6GJQsqaUBKTNV-1" source="Y3azeRMZzOdIchfTlwRO-22" target="Y3azeRMZzOdIchfTlwRO-1">
          <mxGeometry width="50" height="50" relative="1" as="geometry">
            <mxPoint x="570" y="370" as="sourcePoint" />
            <mxPoint x="620" y="320" as="targetPoint" />
          </mxGeometry>
        </mxCell>
        <mxCell id="Y3azeRMZzOdIchfTlwRO-24" value="6.2、MatchCreateInstanceBackMsg" style="text;html=1;align=center;verticalAlign=middle;resizable=0;points=[];autosize=1;strokeColor=none;fillColor=none;" vertex="1" parent="WIyWlLk6GJQsqaUBKTNV-1">
          <mxGeometry x="500" y="275" width="220" height="30" as="geometry" />
        </mxCell>
        <mxCell id="Y3azeRMZzOdIchfTlwRO-30" value="" style="edgeStyle=segmentEdgeStyle;endArrow=classic;html=1;curved=0;rounded=0;endSize=8;startSize=8;entryX=0.5;entryY=1;entryDx=0;entryDy=0;exitX=0.5;exitY=1;exitDx=0;exitDy=0;" edge="1" parent="WIyWlLk6GJQsqaUBKTNV-1" source="Y3azeRMZzOdIchfTlwRO-0" target="Y3azeRMZzOdIchfTlwRO-2">
          <mxGeometry width="50" height="50" relative="1" as="geometry">
            <mxPoint x="50" y="400" as="sourcePoint" />
            <mxPoint x="150" y="390" as="targetPoint" />
            <Array as="points">
              <mxPoint x="90" y="400" />
              <mxPoint x="767" y="400" />
            </Array>
          </mxGeometry>
        </mxCell>
        <mxCell id="Y3azeRMZzOdIchfTlwRO-31" value="6.4、SiRegisteredMatchTagToInstance" style="text;html=1;align=center;verticalAlign=middle;resizable=0;points=[];autosize=1;strokeColor=none;fillColor=none;" vertex="1" parent="WIyWlLk6GJQsqaUBKTNV-1">
          <mxGeometry x="330" y="400" width="230" height="30" as="geometry" />
        </mxCell>
        <mxCell id="Y3azeRMZzOdIchfTlwRO-32" value="" style="endArrow=classic;html=1;rounded=0;exitX=0.407;exitY=0.033;exitDx=0;exitDy=0;exitPerimeter=0;" edge="1" parent="WIyWlLk6GJQsqaUBKTNV-1">
          <mxGeometry width="50" height="50" relative="1" as="geometry">
            <mxPoint x="755.8400000000004" y="249.99999999999994" as="sourcePoint" />
            <mxPoint x="420" y="73" as="targetPoint" />
          </mxGeometry>
        </mxCell>
        <mxCell id="Y3azeRMZzOdIchfTlwRO-33" value="5.3、ScIsConnectInstance" style="text;html=1;align=center;verticalAlign=middle;resizable=0;points=[];autosize=1;strokeColor=none;fillColor=none;rotation=28;" vertex="1" parent="WIyWlLk6GJQsqaUBKTNV-1">
          <mxGeometry x="490" y="160" width="170" height="30" as="geometry" />
        </mxCell>
      </root>
    </mxGraphModel>
  </diagram>
</mxfile>
